<svg xmlns="http://www.w3.org/2000/svg" viewBox="0 0 52.96 22.22"><defs><style>.cls-1{fill:#fff;}</style></defs><g id="Calque_2" data-name="Calque 2"><g id="Calque_1-2" data-name="Calque 1"><path class="cls-1" d="M6.32,13.78,9.69,0h2.9V20.12H9.81V8.83L7.33,20.12h-2L2.81,8.83V20.12H0V0H2.9Z"/><path class="cls-1" d="M15.26,0h4.22q3.87,0,3.87,4.24V9.91a3.81,3.81,0,0,1-2.78,4,6.44,6.44,0,0,1-1.94.22h-.47v6h-2.9Zm2.9,2.86v8.41h.67a3,3,0,0,0,.83-.08,1.25,1.25,0,0,0,.79-1.28V4.24q0-1.38-1.26-1.38Z"/><path class="cls-1" d="M29.39,12.63v6c0,.48,0,.95,0,1.46h-.5c0-.13,0-.6,0-.85a1.72,1.72,0,0,1-1.75,1c-1.35,0-2.16-1.08-2.16-2.6s.88-2.71,2.3-2.71c1,0,1.45.43,1.61.76v-3Zm-3.88,5c0,1.39.74,2.14,1.63,2.14,1.38,0,1.75-.92,1.75-2.3s-.32-2.06-1.65-2.06C26.21,15.38,25.51,16.18,25.51,17.6Z"/><path class="cls-1" d="M31.21,17.62c0,1.31.69,2.12,1.69,2.12a1.46,1.46,0,0,0,1.49-.95h.53a2,2,0,0,1-2.05,1.43c-1.58,0-2.19-1.33-2.19-2.62,0-1.45.74-2.69,2.26-2.69a2.11,2.11,0,0,1,2.11,2.3c0,.14,0,.28,0,.41Zm3.3-.44a1.62,1.62,0,0,0-1.59-1.8c-1.08,0-1.57.73-1.68,1.8Z"/><path class="cls-1" d="M36.44,18.7a1.38,1.38,0,0,0,1.48,1.05c.93,0,1.3-.41,1.3-1s-.25-.86-1.42-1.14c-1.34-.31-1.67-.71-1.67-1.37s.54-1.35,1.72-1.35a1.65,1.65,0,0,1,1.82,1.42h-.52a1.23,1.23,0,0,0-1.32-1c-.91,0-1.17.44-1.17.84s.25.7,1.28.95c1.47.34,1.83.81,1.83,1.57,0,.92-.77,1.49-1.86,1.49a1.8,1.8,0,0,1-2-1.52Z"/><path class="cls-1" d="M41.06,12.63h.52v1h-.52Zm0,2.4h.52V20.1h-.52Z"/><path class="cls-1" d="M47.26,19.75c0,1.62-.74,2.47-2.25,2.47a1.82,1.82,0,0,1-2-1.51h.53a1.44,1.44,0,0,0,1.53,1c1.36,0,1.73-.85,1.73-2.14v-.53a1.65,1.65,0,0,1-1.74,1,2.26,2.26,0,0,1-2.15-2.54c0-1.7,1-2.65,2.23-2.65,1.06,0,1.52.48,1.66.89,0-.29,0-.65,0-.77h.49c0,.18,0,1,0,1.47Zm-3.84-2.21c0,1.21.66,2.08,1.66,2.08,1.3,0,1.69-.84,1.69-2.16s-.41-2.08-1.66-2.08S43.42,16.39,43.42,17.54Z"/><path class="cls-1" d="M49,16.31c0-.45,0-.88,0-1.28h.51a7.77,7.77,0,0,1,0,1,1.71,1.71,0,0,1,1.73-1.08A1.66,1.66,0,0,1,53,16.81V20.1h-.52V16.89c0-.9-.38-1.49-1.29-1.49-1.24,0-1.67,1-1.67,2.11V20.1H49Z"/></g></g></svg>